<svg xmlns="http://www.w3.org/2000/svg" width="440" height="240" viewBox="0 0 440 240" role="img" aria-label="top languages"><style>text{white-space:pre}</style><rect x="0.5" y="0.5" width="439" height="239" rx="11" fill="#ffffff" stroke="#dbe3e2" stroke-width="1"/><text font-family="ui-monospace,SFMono-Regular,Menlo,Consolas,monospace" x="20" y="32" font-size="12" fill="#0b8a58">$ gh langs --authored --last-year</text><rect x="1" y="48" width="438" height="1" fill="#dbe3e2"/><rect x="24.0" y="64" width="360.04" height="10" rx="2" fill="#0b8a58"/><rect x="386.04" y="64" width="12.05" height="10" rx="2" fill="#9d6a08"/><rect x="400.09" y="64" width="8.19" height="10" rx="2" fill="#33a276"/><rect x="410.29" y="64" width="2.45" height="10" rx="2" fill="#4a5d6b"/><rect x="414.74" y="64" width="2" height="10" rx="2" fill="#66798a"/><rect x="24" y="101" width="10" height="10" rx="2" fill="#0b8a58"/><text font-family="ui-monospace,SFMono-Regular,Menlo,Consolas,monospace" x="42" y="110" font-size="12.5" fill="#66798a">python</text><text font-family="ui-monospace,SFMono-Regular,Menlo,Consolas,monospace" x="416" y="110" font-size="12.5" fill="#08121a" text-anchor="end">92.4 %</text><rect x="24" y="125" width="10" height="10" rx="2" fill="#9d6a08"/><text font-family="ui-monospace,SFMono-Regular,Menlo,Consolas,monospace" x="42" y="134" font-size="12.5" fill="#66798a">html</text><text font-family="ui-monospace,SFMono-Regular,Menlo,Consolas,monospace" x="416" y="134" font-size="12.5" fill="#08121a" text-anchor="end">3.6 %</text><rect x="24" y="149" width="10" height="10" rx="2" fill="#33a276"/><text font-family="ui-monospace,SFMono-Regular,Menlo,Consolas,monospace" x="42" y="158" font-size="12.5" fill="#66798a">shell</text><text font-family="ui-monospace,SFMono-Regular,Menlo,Consolas,monospace" x="416" y="158" font-size="12.5" fill="#08121a" text-anchor="end">2.6 %</text><rect x="24" y="173" width="10" height="10" rx="2" fill="#4a5d6b"/><text font-family="ui-monospace,SFMono-Regular,Menlo,Consolas,monospace" x="42" y="182" font-size="12.5" fill="#66798a">typescript</text><text font-family="ui-monospace,SFMono-Regular,Menlo,Consolas,monospace" x="416" y="182" font-size="12.5" fill="#08121a" text-anchor="end">1.1 %</text><rect x="24" y="197" width="10" height="10" rx="2" fill="#66798a"/><text font-family="ui-monospace,SFMono-Regular,Menlo,Consolas,monospace" x="42" y="206" font-size="12.5" fill="#66798a">other</text><text font-family="ui-monospace,SFMono-Regular,Menlo,Consolas,monospace" x="416" y="206" font-size="12.5" fill="#08121a" text-anchor="end">0.3 %</text></svg>