<svg xmlns="http://www.w3.org/2000/svg" width="440" height="240" viewBox="0 0 440 240" role="img" aria-label="top languages"><style>text{white-space:pre}</style><rect x="0.5" y="0.5" width="439" height="239" rx="11" fill="#0a0f15" stroke="#1c2833" stroke-width="1"/><text font-family="ui-monospace,SFMono-Regular,Menlo,Consolas,monospace" x="20" y="32" font-size="12" fill="#5ef2a0">$ gh langs --authored --last-year</text><rect x="1" y="48" width="438" height="1" fill="#1c2833"/><rect x="24.0" y="64" width="216.71" height="10" rx="2" fill="#5ef2a0"/><rect x="242.71" y="64" width="65.78" height="10" rx="2" fill="#f2b45e"/><rect x="310.49" y="64" width="33.97" height="10" rx="2" fill="#2caa70"/><rect x="346.45" y="64" width="20.87" height="10" rx="2" fill="#8ba0ae"/><rect x="369.33" y="64" width="44.67" height="10" rx="2" fill="#5b7080"/><rect x="24" y="101" width="10" height="10" rx="2" fill="#5ef2a0"/><text font-family="ui-monospace,SFMono-Regular,Menlo,Consolas,monospace" x="42" y="110" font-size="12.5" fill="#5b7080">go</text><text font-family="ui-monospace,SFMono-Regular,Menlo,Consolas,monospace" x="416" y="110" font-size="12.5" fill="#dce8f1" text-anchor="end">55.8 %</text><rect x="24" y="125" width="10" height="10" rx="2" fill="#f2b45e"/><text font-family="ui-monospace,SFMono-Regular,Menlo,Consolas,monospace" x="42" y="134" font-size="12.5" fill="#5b7080">python</text><text font-family="ui-monospace,SFMono-Regular,Menlo,Consolas,monospace" x="416" y="134" font-size="12.5" fill="#dce8f1" text-anchor="end">17.3 %</text><rect x="24" y="149" width="10" height="10" rx="2" fill="#2caa70"/><text font-family="ui-monospace,SFMono-Regular,Menlo,Consolas,monospace" x="42" y="158" font-size="12.5" fill="#5b7080">typescript</text><text font-family="ui-monospace,SFMono-Regular,Menlo,Consolas,monospace" x="416" y="158" font-size="12.5" fill="#dce8f1" text-anchor="end">9.2 %</text><rect x="24" y="173" width="10" height="10" rx="2" fill="#8ba0ae"/><text font-family="ui-monospace,SFMono-Regular,Menlo,Consolas,monospace" x="42" y="182" font-size="12.5" fill="#5b7080">javascript</text><text font-family="ui-monospace,SFMono-Regular,Menlo,Consolas,monospace" x="416" y="182" font-size="12.5" fill="#dce8f1" text-anchor="end">5.8 %</text><rect x="24" y="197" width="10" height="10" rx="2" fill="#5b7080"/><text font-family="ui-monospace,SFMono-Regular,Menlo,Consolas,monospace" x="42" y="206" font-size="12.5" fill="#5b7080">other</text><text font-family="ui-monospace,SFMono-Regular,Menlo,Consolas,monospace" x="416" y="206" font-size="12.5" fill="#dce8f1" text-anchor="end">11.9 %</text></svg>